<?xml version="1.0" standalone="yes"?>

<svg version="1.1" viewBox="0.0 0.0 552.0 178.0" fill="none" stroke="none" stroke-linecap="square" stroke-miterlimit="10" xmlns="http://www.w3.org/2000/svg" xmlns:xlink="http://www.w3.org/1999/xlink"><clipPath id="p.0"><path d="m0 0l552.0 0l0 178.0l-552.0 0l0 -178.0z" clip-rule="nonzero"></path></clipPath><g clip-path="url(#p.0)"><path fill="#000000" fill-opacity="0.0" d="m0 0l552.0 0l0 178.0l-552.0 0z" fill-rule="nonzero"></path><path fill="#000000" fill-opacity="0.0" d="m131.03937 48.41995l532.9764 0l0 151.02362l-532.9764 0z" fill-rule="nonzero"></path><path fill="#e58900" d="m178.91437 140.07994q4.375 0 7.609375 -0.796875q3.25 -0.796875 6.171875 -2.1875l0 -12.625l-8.6875 0q-1.25 0 -1.96875 -0.6875q-0.71875 -0.703125 -0.71875 -1.703125l0 -7.296875l23.09375 0l0 28.078125q-2.640625 1.921875 -5.5 3.34375q-2.859375 1.40625 -6.109375 2.328125q-3.234375 0.90625 -6.9375 1.359375q-3.6875 0.453125 -7.953125 0.453125q-7.59375 0 -13.984375 -2.640625q-6.375 -2.640625 -11.03125 -7.34375q-4.65625 -4.703125 -7.28125 -11.21875q-2.609375 -6.53125 -2.609375 -14.265625q0 -7.828125 2.546875 -14.34375q2.546875 -6.53125 7.21875 -11.234375q4.6875 -4.703125 11.359375 -7.296875q6.671875 -2.59375 14.984375 -2.59375q8.484375 0 14.703125 2.515625q6.21875 2.515625 10.53125 6.546875l-3.734375 5.859375q-1.109375 1.78125 -2.9375 1.78125q-1.140625 0 -2.34375 -0.765625q-1.53125 -0.921875 -3.140625 -1.828125q-1.609375 -0.90625 -3.5625 -1.578125q-1.9375 -0.671875 -4.359375 -1.109375q-2.421875 -0.4375 -5.59375 -0.4375q-5.140625 0 -9.296875 1.734375q-4.140625 1.71875 -7.078125 4.9375q-2.921875 3.21875 -4.515625 7.734375q-1.578125 4.515625 -1.578125 10.078125q0 6.0 1.671875 10.6875q1.6875 4.671875 4.703125 7.890625q3.03125 3.21875 7.203125 4.921875q4.1875 1.703125 9.125 1.703125z" fill-rule="nonzero"></path><path fill="#e59e01" d="m215.79126 149.57994l0 -49.25l6.953125 0q1.828125 0 2.546875 0.671875q0.71875 0.671875 0.953125 2.3125l0.71875 5.953125q2.640625 -4.5625 6.1875 -7.203125q3.5625 -2.640625 7.984375 -2.640625q3.640625 0 6.046875 1.671875l-1.546875 8.890625q-0.140625 0.859375 -0.625 1.21875q-0.46875 0.359375 -1.296875 0.359375q-0.71875 0 -1.96875 -0.328125q-1.234375 -0.34375 -3.3125 -0.34375q-3.6875 0 -6.328125 2.046875q-2.640625 2.03125 -4.46875 5.96875l0 30.671875l-11.84375 0z" fill-rule="nonzero"></path><path fill="#f1c232" d="m276.02298 99.564316q5.515625 0 10.0 1.78125q4.5 1.765625 7.65625 5.03125q3.171875 3.265625 4.890625 7.96875q1.734375 4.703125 1.734375 10.515625q0 5.859375 -1.734375 10.5625q-1.71875 4.703125 -4.890625 8.015625q-3.15625 3.3125 -7.65625 5.09375q-4.484375 1.765625 -10.0 1.765625q-5.515625 0 -10.03125 -1.765625q-4.515625 -1.78125 -7.703125 -5.09375q-3.1875153 -3.3125 -4.9531403 -8.015625q-1.75 -4.703125 -1.75 -10.5625q0 -5.8125 1.75 -10.515625q1.765625 -4.703125 4.9531403 -7.96875q3.1875 -3.265625 7.703125 -5.03125q4.515625 -1.78125 10.03125 -1.78125zm0 41.609375q6.140625 0 9.09375 -4.125q2.953125 -4.125 2.953125 -12.09375q0 -7.96875 -2.953125 -12.140625q-2.953125 -4.171875 -9.09375 -4.171875q-6.234375 0 -9.21875 4.203125q-2.96875 4.1875 -2.96875 12.109375q0 7.921875 2.96875 12.078125q2.984375 4.140625 9.21875 4.140625z" fill-rule="nonzero"></path><path fill="#f18b24" d="m320.42722 100.32994l0 31.296875q0 4.515625 2.078125 6.984375q2.09375 2.46875 6.265625 2.46875q3.078125 0 5.765625 -1.359375q2.6875 -1.375 5.09375 -3.765625l0 -35.625l11.84375 0l0 49.25l-7.25 0q-2.296875 0 -3.015625 -2.15625l-0.8125 -3.9375q-1.546875 1.53125 -3.171875 2.8125q-1.625 1.265625 -3.484375 2.15625q-1.84375 0.890625 -3.984375 1.390625q-2.125 0.5 -4.578125 0.5q-4.03125 0 -7.125 -1.359375q-3.09375 -1.375 -5.21875 -3.859375q-2.109375 -2.5 -3.1875 -5.9375q-1.078125 -3.4375 -1.078125 -7.5625l0 -31.296875l11.859375 0z" fill-rule="nonzero"></path><path fill="#f17117" d="m364.15958 165.65807l0 -65.328125l7.234375 0q1.15625 0 1.96875 0.53125q0.828125 0.53125 1.0625 1.625l0.953125 4.5625q2.984375 -3.40625 6.84375 -5.515625q3.859375 -2.109375 9.0468445 -2.109375q4.03125 0 7.359375 1.6875q3.34375 1.671875 5.765625 4.859375q2.4375 3.1875 3.75 7.875q1.3125 4.671875 1.3125 10.71875q0 5.53125 -1.484375 10.234375q-1.484375 4.703125 -4.25 8.15625q-2.75 3.453125 -6.671875 5.40625q-3.90625 1.9375 -8.75 1.9375q-4.1874695 0 -7.0937195 -1.265625q-2.890625 -1.28125 -5.203125 -3.53125l0 20.15625l-11.84375 0zm23.03122 -56.875q-3.6874695 0 -6.3124695 1.5625q-2.609375 1.546875 -4.875 4.390625l0 22.078125q2.015625 2.5 4.390625 3.484375q2.375 0.984375 5.125 0.984375q2.6874695 0 4.8593445 -1.0q2.1875 -1.015625 3.703125 -3.078125q1.515625 -2.078125 2.328125 -5.21875q0.8125 -3.140625 0.8125 -7.421875q0 -4.3125 -0.703125 -7.3125q-0.6875 -3.0 -1.984375 -4.875q-1.296875 -1.875 -3.140625 -2.734375q-1.84375 -0.859375 -4.203125 -0.859375z" fill-rule="nonzero"></path><path fill="#f15309" d="m447.04144 139.15807q3.75 0 6.703125 -1.234375q2.953125 -1.25 4.984375 -3.5q2.046875 -2.265625 3.125 -5.484375q1.078125 -3.21875 1.078125 -7.203125l0 -41.5625l12.921875 0l0 41.5625q0 6.203125 -2.0 11.453125q-1.984375 5.25 -5.734375 9.078125q-3.75 3.8125 -9.078125 5.953125q-5.328125 2.125 -12.0 2.125q-6.671875 0 -12.0 -2.125q-5.328125 -2.140625 -9.046875 -5.953125q-3.71875 -3.828125 -5.71875 -9.078125q-1.984375 -5.25 -1.984375 -11.453125l0 -41.5625l12.921875 0l0 41.515625q0 3.984375 1.078125 7.203125q1.078125 3.21875 3.09375 5.5q2.015625 2.28125 4.96875 3.53125q2.953125 1.234375 6.6875 1.234375z" fill-rule="nonzero"></path><path fill="#f10900" d="m488.33582 165.65807l0 -65.328125l7.234375 0q1.15625 0 1.96875 0.53125q0.828125 0.53125 1.0625 1.625l0.953125 4.5625q2.984375 -3.40625 6.84375 -5.515625q3.859375 -2.109375 9.046875 -2.109375q4.03125 0 7.359375 1.6875q3.34375 1.671875 5.765625 4.859375q2.4375 3.1875 3.75 7.875q1.3125 4.671875 1.3125 10.71875q0 5.53125 -1.484375 10.234375q-1.484375 4.703125 -4.25 8.15625q-2.75 3.453125 -6.671875 5.40625q-3.90625 1.9375 -8.75 1.9375q-4.1875 0 -7.09375 -1.265625q-2.890625 -1.28125 -5.203125 -3.53125l0 20.15625l-11.84375 0zm23.03125 -56.875q-3.6875 0 -6.3125 1.5625q-2.609375 1.546875 -4.875 4.390625l0 22.078125q2.015625 2.5 4.390625 3.484375q2.375 0.984375 5.125 0.984375q2.6875 0 4.859375 -1.0q2.1875 -1.015625 3.703125 -3.078125q1.515625 -2.078125 2.328125 -5.21875q0.8125 -3.140625 0.8125 -7.421875q0 -4.3125 -0.703125 -7.3125q-0.6875 -3.0 -1.984375 -4.875q-1.296875 -1.875 -3.140625 -2.734375q-1.84375 -0.859375 -4.203125 -0.859375z" fill-rule="nonzero"></path><path fill="#ff9900" d="m132.34526 95.64595l-21.303734 -0.9660263l0 0c-22.081635 16.141045 -56.546753 16.781631 -79.62295 1.4799042c-23.076195 -15.301727 -27.211351 -41.53799 -9.553234 -60.612247c17.658117 -19.07426 51.330566 -24.744114 77.79167 -13.098761c26.461113 11.645353 37.050995 36.794754 24.46524 58.101326z" fill-rule="nonzero"></path><path fill="#000000" fill-opacity="0.0" d="m78.23314 84.311676l0 0c2.0812988 -9.110542 12.245918 -16.122925 24.91957 -17.191544l3.3113556 20.569527z" fill-rule="nonzero"></path><path fill="#000000" fill-opacity="0.0" d="m78.23314 84.311676l0 0c2.0812988 -9.110542 12.245918 -16.122925 24.91957 -17.191544" fill-rule="nonzero"></path><path stroke="#ffffff" stroke-width="4.0" stroke-linejoin="round" stroke-linecap="butt" d="m78.23314 84.311676l0 0c2.0812988 -9.110542 12.245918 -16.122925 24.91957 -17.191544" fill-rule="nonzero"></path><path fill="#000000" fill-opacity="0.0" d="m57.870342 79.914314l0 0c2.7291222 -14.294785 19.172192 -25.136402 39.08093 -25.76773l1.8057556 29.861145z" fill-rule="nonzero"></path><path fill="#000000" fill-opacity="0.0" d="m57.870342 79.914314l0 0c2.7291222 -14.294785 19.172192 -25.136402 39.08093 -25.76773" fill-rule="nonzero"></path><path stroke="#ffffff" stroke-width="4.0" stroke-linejoin="round" stroke-linecap="butt" d="m57.870342 79.914314l0 0c2.7291222 -14.294785 19.172192 -25.136402 39.08093 -25.76773" fill-rule="nonzero"></path><path fill="#000000" fill-opacity="0.0" d="m37.664463 73.53808l0 0c4.089367 -18.603146 25.430191 -32.479992 50.958958 -33.136005l1.8626862 39.456387z" fill-rule="nonzero"></path><path fill="#000000" fill-opacity="0.0" d="m37.664463 73.53808l0 0c4.089367 -18.603146 25.430191 -32.479992 50.958958 -33.136005" fill-rule="nonzero"></path><path stroke="#ffffff" stroke-width="4.0" stroke-linejoin="round" stroke-linecap="butt" d="m37.664463 73.53808l0 0c4.089367 -18.603146 25.430191 -32.479992 50.958958 -33.136005" fill-rule="nonzero"></path></g></svg>

